<?xml version="1.0" encoding="utf-8"?>
<!-- Generator: Adobe Illustrator 26.0.1, SVG Export Plug-In . SVG Version: 6.00 Build 0)  -->
<svg version="1.1" id="Layer_1" xmlns="http://www.w3.org/2000/svg" xmlns:xlink="http://www.w3.org/1999/xlink" x="0px" y="0px"
	 viewBox="0 0 1920 1080" style="enable-background:new 0 0 1920 1080;" xml:space="preserve">
<style type="text/css">
	.st0{fill:#72AF5E;}
	.st1{fill:#039446;}
	.st2{fill:#FAFCFB;}
</style>
<g>
	<g>
		<path class="st0" d="M961,722c-61,0-122,0-183,0c0-121.67,0-243.33,0-365c121.67,0,243.33,0,365,0c0,121.67,0,243.33,0,365
			c-60.33,0-120.67,0-181,0c2.78-9.32,5.56-18.65,8.44-28.33c-5.65,0-10.82,0-16.88,0C956.15,703.52,958.58,712.76,961,722z
			 M883.04,636.89c0.35,0.37,0.7,0.73,1.05,1.1c0,0-0.06-0.08-0.06-0.08c0.73,1.03,1.26,2.31,2.21,3.07
			c19.14,15.37,41.05,23.74,65.44,25.92c4.18,0.37,5.43-0.99,5.41-5.19c-0.15-35-0.16-69.99,0.02-104.99
			c0.02-4.52-1.43-5.61-5.71-5.57c-20.83,0.19-41.66,0.08-62.49,0.07c-0.62,0.26-1.23,0.51-1.85,0.77
			c-14.09-0.23-28.18-0.53-42.27-0.53c-0.82,0-2.42,2.51-2.35,3.77c0.8,12.84,2.97,25.49,8.19,37.3
			c3.12,7.07,7.36,13.65,11.09,20.44c2.47,8.59,8.48,14.39,15.34,19.55c1.41,1.06,2.68,2.3,4.01,3.45c0.68,0.32,1.36,0.65,2.04,0.97
			C883.1,636.94,883.04,636.89,883.04,636.89z M835.77,517.76c0.18,0.18,0.37,0.36,0.55,0.54c0.06,4.64,2.75,3.64,4.71,1.74
			c2.61-2.53,3.95-5.97,1.83-9.48c-2.33-3.87-5.47-2.48-8.38-1.32c-1.16-0.92-3.45-1.49-3.52-1.29c-1.03,2.95-2.97,6.34-2.26,8.96
			C829.65,520.45,833.13,519.27,835.77,517.76z M827.94,541.95c0,0,0.08,0.06,0.08,0.06c-0.07-1.41-0.14-2.82-0.24-4.65
			c-4.89,1.74-5.4,5.34-4.25,8.66c2.05,5.92,5.6,4.2,8.92,0.74c0.48,1.35,0.89,2.52,1.31,3.7c4.52-1.91,6.44-5.64,4.62-9.54
			c-0.73-1.58-2.6-3.24-4.22-3.59c-1.26-0.27-3.02,1.34-4.41,2.32C829,540.19,828.54,541.17,827.94,541.95z M870.95,646.94l0.2,0.2
			c-0.11,2.24-3.17,4.93,1.5,6.81c1.29-1.92,2.87-3.79,3.87-5.92c1.15-2.46,3.26-5.99,2.35-7.58c-2.16-3.78-5.01,0.79-7.72,0.72
			c0,0-0.26-0.26-0.26-0.26c0.41-1.07,1.06-2.11,1.16-3.2c0.14-1.45,0.38-3.45-0.41-4.26c-0.67-0.7-3.01-0.55-4.12,0.08
			c-3.24,1.84-6.25,4.11-9.37,6.23c1.89,4.91,4.49,1.97,6.8,1.21l0.12,0.12c0.05,2.22,0.1,4.44,0.16,6.67
			C867.14,647.48,869.05,647.21,870.95,646.94z M857.85,466.19c-3.86-1.77-6.96-1.59-8.47,3.36c2.9,2.37,5.64,4.76,8.55,6.92
			c0.9,0.66,2.28,0.68,3.44,0.99c0.06-1.31,0.12-2.61,0.18-3.92c0.22-0.26,0.43-0.52,0.65-0.78c5.74,1.05,3.82-6.79,10.07-6.17
			c-4.39-3.71-7.18-6.28-10.23-8.48c-0.9-0.65-3.25-0.79-3.74-0.19c-0.95,1.17-1.35,3.02-1.41,4.6c-0.04,1,0.94,2.04,1.47,3.07
			C858.19,465.78,858.02,465.98,857.85,466.19z M1060.93,607.9c0,0-0.05,0.06-0.05,0.06c1-1,2.3-1.83,2.94-3.02
			c8.29-15.44,12.63-32,13.99-49.42c0.31-3.96-1.84-4.32-4.85-4.31c-10.96,0.05-21.91-0.04-32.87,0.06
			c-2.77,0.02-5.54,0.53-8.3,0.81c-0.22,0.13-0.43,0.12-0.64-0.03c-1.28-0.27-2.56-0.78-3.84-0.78c-19.98-0.05-39.96,0.03-59.95-0.1
			c-3.66-0.02-4.42,1.49-4.41,4.79c0.09,35.3,0.13,70.6-0.04,105.9c-0.02,4.46,1.65,5.4,5.57,5.03
			c23.05-2.21,44.16-9.46,62.55-23.85c1.74-1.66,3.49-3.31,5.23-4.97c5.72-5.68,11.81-11.05,17.03-17.16
			C1056.51,617.15,1058.43,612.27,1060.93,607.9z M1004.04,545.94c3.67,0,7.34,0,11.01,0c20.71,0,41.41,0,62.33,0
			c0.16-1.53,0.4-2.49,0.33-3.43c-1.59-22.18-8.23-42.68-21.32-60.76c-5.13-7.09-11.19-13.5-16.83-20.22
			c-0.8-0.47-1.6-0.95-2.39-1.42c-1.05-0.82-2.09-1.64-3.14-2.47c-19.36-15.29-41.19-24.22-65.95-25.76
			c-3.88-0.24-5.21,0.95-5.18,4.99c0.19,24.33,0.14,48.66,0.17,73c-0.08,0.95-4.03,1.54-0.26,2.84c0.06,9.64,0.2,19.28,0.13,28.92
			c-0.02,3.1,0.74,4.4,4.19,4.35C979.44,545.78,991.74,545.92,1004.04,545.94z M887.71,545.91c20.98,0.03,41.97-0.08,62.95,0.21
			c4.92,0.07,6.51-1.07,6.47-6.29c-0.26-32.68-0.13-65.37-0.13-98.05c0-11.01,0-11.01-11.15-9.52c-57.22,7.64-99.3,52.46-103.4,110
			c-0.22,3.02,0.84,3.82,3.57,3.78c8.82-0.12,17.65-0.13,26.47-0.18C877.58,545.87,882.65,545.89,887.71,545.91z M962.19,361.06
			c-0.34,0.01-0.68,0.01-1.01,0.02c-3.75,12.97-7.51,25.93-11.36,39.23c2.78,1.11,5.25,1.73,7.32,2.99
			c5.85,3.56,10.46-0.17,14.46-3.13c1.27-0.94-0.37-5.93-0.81-9.05c-0.18-1.31-0.68-2.57-1.05-3.85
			C967.23,378.54,964.71,369.8,962.19,361.06z M790.89,548.41c-0.01,0.4-0.02,0.79-0.04,1.19c8.87,2.7,17.74,5.41,26.71,8.14
			c0-5.93,0-10.64,0-16.04C808.29,544.04,799.59,546.22,790.89,548.41z M1104.32,541.19c0,5.52,0,10.39,0,16.17
			c9.29-2.38,18.05-4.63,26.82-6.88c-0.02-0.37-0.04-0.74-0.06-1.11C1122.31,546.7,1113.54,544.01,1104.32,541.19z M831.27,568.84
			c-1.45,1.04-1.91,1.6-2.49,1.76c-2.78,0.74-4.24,2.58-2.66,5.03c0.81,1.26,3.22,1.8,5,2.04c1.56,0.21,3.32-0.23,4.86-0.78
			c1.68-0.6,3.21-1.64,4.81-2.49c-1.3-1-2.59-2-3.4-2.62c0.73-1.56,1.45-3.12,2.18-4.67c-1.76-0.81-3.52-1.62-4.35-2.01
			c1.15-1.41,2.24-2.73,3.32-4.06c-3.64,0.01-7.3-0.19-10.91,0.15c-1.25,0.12-3.31,1.55-3.35,2.45c-0.05,1.41,1.02,3.17,2.14,4.23
			C827.19,568.59,828.84,568.4,831.27,568.84z M1081.31,557.81c0.47,0.7,0.93,1.39,1.4,2.09c3.46,0,6.94,0.19,10.38-0.1
			c1.32-0.11,2.54-1.31,3.81-2.01c-1.23-0.91-2.44-1.84-3.7-2.71c-0.44-0.31-0.98-0.48-1.88-0.9c1.4-1,2.6-1.48,3.2-2.38
			c1.01-1.51,1.62-3.27,2.41-4.92c-1.42-0.55-2.81-1.41-4.28-1.58c-2.47-0.29-5.02-0.4-7.47-0.05c-1.05,0.15-1.92,1.63-2.87,2.5
			c0.9,0.71,1.71,1.61,2.72,2.08c0.8,0.38,1.85,0.24,2.79,0.33C1085.56,552.81,1083.43,555.31,1081.31,557.81z M1075.42,610.43
			c2.62-0.53,4.62-0.63,6.35-1.37c1.19-0.51,2-1.9,2.98-2.9c-3.13-2.13-6.14-4.49-9.47-6.25c-1.03-0.55-2.93,0.49-4.4,0.93
			c-0.19,0.06-0.15,0.89-0.25,1.58c1.45,0.91,2.93,1.84,4.69,2.94c-7.76,1.96-7.76,1.96-8.9,5.54c8.51,6.46,12.36,7.25,14.03,2.64
			C1079.01,612.65,1077.52,611.73,1075.42,610.43z M1013.41,433.46c1.85,3.19,0.26,8.08,5.57,8.13c0.63-2.46,0.59-5.37,1.99-7.13
			c3.54-4.45,3.58-6.05-1.37-8.63c-2.15-1.12-4.42-1.99-6.54-2.94c-6.87,10.34-7.28,12.86-2.37,14.68
			C1011.47,436.41,1012.26,435.21,1013.41,433.46z M1035.54,644.41c0.05,0.69,0.1,1.38,0.15,2.08c3.12,1.25,6.68,1.86,7.1,6.33
			c0.06,0.59,3.81,1.68,5.3,1.1c2.19-0.84,4.05-2.82,5.72-4.63c0.63-0.68,0.84-2.63,0.33-3.32c-2.06-2.79-4.38-5.4-6.82-7.87
			c-0.56-0.56-2.27-0.69-2.93-0.24c-0.67,0.46-0.99,1.87-0.94,2.85c0.04,0.94,0.74,1.86,1,2.45
			C1041.27,643.61,1038.4,644.01,1035.54,644.41z M839.09,484.25c0.09,0.52,0.18,1.05,0.27,1.57c3.95,2.35,7.9,4.7,12.21,7.27
			c0.92-1.4,1.68-2.55,1.98-3.01c-1.28-2.37-2.19-4.06-3.1-5.75c2.02-0.22,4.05-0.45,7.11-0.78c1.13-1.09,1.95-2.82-1.18-4.51
			c-2.48-1.34-4.8-3.01-7.36-4.14c-1.06-0.47-2.56,0.1-3.87,0.19c0.24,1.22,0.39,2.47,0.75,3.66c0.28,0.95,0.81,1.83,1.23,2.73
			c-1.09,0.38-2.18,0.77-3.27,1.15C842.27,483.18,840.68,483.72,839.09,484.25z M878.66,458.24c4-3.21,9.29-4.93,7.99-10.47
			c-0.61-2.6-3.32-5.69-5.82-6.67c-4.93-1.95-7.58,2.59-11.19,5.71C872.64,450.61,875.48,454.21,878.66,458.24z M969.25,682.37
			c2.7,3.69,6.78,4.39,10.74,1.92c3.25-2.03,4.23-7.46,2.02-11.1c-2.05-3.36-6.55-4.11-11.13-2.15c-4.75,2.03-3.23,5.19-1.96,8.89
			c2.19-0.52,4.14-0.99,6.73-1.6c-1.33-1.66-2.08-2.6-2.84-3.55c0.37-0.43,0.75-0.86,1.12-1.29c1.37,1.05,3.67,1.91,3.95,3.19
			C979.69,685.26,971.68,679.12,969.25,682.37z M999.66,433.77c3.89,0.08,7.12-3.44,7.32-7.95c0.19-4.35-3.08-7.6-7.85-7.8
			c-4.54-0.2-8,3.4-7.96,8.29C991.19,430.31,995.03,433.68,999.66,433.77z M921.99,428.86c0.08-4.61-3.25-8.53-7.26-8.53
			c-4.41-0.01-8.55,3.56-8.58,7.4c-0.04,4.6,3.22,8.27,7.41,8.36C918.35,436.19,921.91,433.13,921.99,428.86z M921.58,676.07
			c-0.18,0.3-0.79,1.36-1.41,2.42c2.39,1.16,4.87,3.46,7.15,3.27c6.44-0.54,5.01-4.45,2.38-8.28c1.53-0.24,2.86-0.45,4.21-0.67
			c-1.06-4.39-2.35-6.06-6.13-6.3c-2.02-0.13-5.01,0.66-5.96,2.1C920.77,670.19,921.58,672.98,921.58,676.07z M1089.73,526.9
			c-5.21-0.28-8.35,2.16-8.6,6.7c-0.28,5.01,2.33,8.2,6.94,8.47c5.07,0.29,8.66-2.7,8.76-7.28
			C1096.92,530.31,1094.06,527.14,1089.73,526.9z M1048.27,444.38c-3.31,3.66-6.44,7.12-9.69,10.71c3.58,3.34,5.91,8.24,10.91,6.47
			c2.62-0.93,5.54-4.18,6.18-6.89C1056.86,449.6,1051.89,447.65,1048.27,444.38z M1057.04,639.52c0.4,1.58,0.72,2.85,1.04,4.12
			c1.08-0.57,2.37-0.93,3.21-1.75c6.15-5.96,6.11-6.35-0.31-12.17c-1.1-1-2.2-2.06-3.47-2.8c-0.71-0.41-2.18-0.61-2.6-0.2
			c-2.23,2.2-4.32,4.56-6.24,7.03c-0.35,0.45,0.11,1.78,0.56,2.46c0.17,0.26,1.56,0.06,2.08-0.34c1.42-1.08,2.68-2.39,4-3.6
			c0.32,0.31,0.64,0.62,0.96,0.93c-1.03,1.73-2.06,3.46-3.55,5.96C1054.65,639.32,1055.94,639.43,1057.04,639.52z M981.96,429.11
			c4.7-0.05,7.49-2.99,7.51-7.92c0.01-4.44-3.24-7.33-8.19-7.28c-4.75,0.05-7.37,2.9-7.36,8
			C973.94,426.74,976.64,429.16,981.96,429.11z M1085.03,593.48c0.24,0.1,0.48,0.2,0.72,0.29c-0.37,1.39-0.91,2.76-1.04,4.17
			c-0.07,0.79,0.52,1.64,0.82,2.47c0.84-0.51,2.13-0.83,2.43-1.56c1.25-3,2.2-6.12,3.2-9.05c-12.17-6.63-14.56-6.05-17.23,3.67
			c-0.04,0.16-0.19,0.34-0.15,0.47c0.28,0.95,0.58,1.89,0.88,2.84c0.87-0.56,1.95-0.95,2.56-1.72c0.96-1.21,1.6-2.66,2.38-4.01
			c0.36,0.19,0.71,0.39,1.07,0.58c-0.34,1.98-0.69,3.97-1.03,5.95c0.44,0.26,0.88,0.53,1.31,0.79
			C1082.31,596.73,1083.67,595.1,1085.03,593.48z M932.07,415.5c0.57,2.56,1.3,4.49,1.35,6.43c0.04,1.57-0.72,3.17-1.13,4.76
			c-1.09-1.18-2.56-2.19-3.18-3.58c-0.85-1.92-1.06-4.13-1.55-6.21c-3.55-0.44-5.08,0.64-4.16,4.11c0.38,1.45,0.63,2.94,1.07,4.36
			c1.51,4.91,4.26,6.46,9.06,5.16c4.5-1.21,6.03-3.76,5.02-8.7c-0.49-2.41-1.24-4.77-1.95-7.42
			C935.01,414.8,933.79,415.09,932.07,415.5z M1061.13,457.18c-9.39,6.41-10.85,9.43-7.1,14.29c3.78,4.91,6.75,4.5,13.71-1.31
			c2.74-2.29,2.64-3.87-0.44-5.76c-1.03,0.7-2.04,1.6-3.21,2.14c-2.17,1-4.43,1.8-6.66,2.68c1.25-2.02,2.2-4.34,3.82-5.99
			C1063.41,461.05,1065.17,459.36,1061.13,457.18z M1040.31,448.09c0-1.97,0-3.26,0-4.07c1.59-0.59,2.84-1.04,4.08-1.5
			c-0.77-1.11-1.32-2.56-2.36-3.28c-8.49-5.88-6.18-5.61-11.87,1.77c-0.81,1.05-1.79,2.1-2.16,3.31c-0.32,1.03-0.31,2.8,0.33,3.37
			c2.09,1.87,4.49,3.4,6.87,4.89c0.5,0.31,2.04,0.04,2.11-0.22c0.21-0.79,0.23-1.97-0.23-2.53c-1.15-1.38-2.61-2.5-3.94-3.73
			c0.23-0.33,0.47-0.67,0.7-1C1035.79,446.02,1037.74,446.91,1040.31,448.09z M957.94,420.27c0.59,2.01-3.48,6.67,3.26,6.88
			c7.31,0.22,10.07-1.4,10.44-6.71c0.36-5.12-2.56-7.75-8.19-8.4C956.79,411.28,957.82,415.67,957.94,420.27z M840.72,577.46
			c-3.45,2.63-6.94,5.09-10.18,7.85c-2.28,1.93-1.7,5.92,0.97,6.32c4.61,0.7,9.31,0.7,13.62,0.98
			C843.61,587.39,842.25,582.72,840.72,577.46z M1076,507.39c3.28-3.96,6.43-7.2,8.77-10.94c0.65-1.04-0.95-5.09-1.73-5.16
			c-4.62-0.38-9.31,0-13.77,0.12C1071.51,496.74,1073.34,501.1,1076,507.39z M999.9,680.33c-1.07-4.22-1.93-8.06-3.07-11.83
			c-0.26-0.87-1.69-2.19-2.17-2.03c-1.02,0.33-2.59,1.6-2.5,2.3c0.38,2.98-1.51,3.72-3.42,5.2c-1.38,1.06-2.29,4.04-1.83,5.73
			c0.34,1.27,3.2,2.57,4.94,2.57C994.37,682.28,996.9,681.12,999.9,680.33z M946.53,685.5c0.5-2.05,0.97-3.61,1.25-5.22
			c0.4-2.28,0.88-4.59,0.88-6.88c0-0.99-0.92-2.33-1.81-2.85c-0.52-0.3-2.53,0.58-2.62,1.13c-0.49,3.14-2.74,2.89-5,3.6
			c-1.7,0.53-3.68,2.82-3.92,4.54c-0.18,1.36,1.81,3.72,3.38,4.43C940.83,685.23,943.51,685.08,946.53,685.5z M1087.56,584.81
			c5.95-2.14,7.98-5.84,6.65-10c-1.28-3.98-6.15-6.1-10.72-4.65c-3.28,1.04-5.63,5.85-4.25,9.45c0.5,1.29,2.12,2.16,3.23,3.21
			c0.43-1.32,0.94-2.61,1.27-3.95c0.3-1.22,0.24-3.51,0.63-3.57c1.51-0.25,3.38-0.21,4.61,0.55c0.66,0.4,0.51,2.52,0.31,3.8
			C1089.06,581.1,1088.37,582.47,1087.56,584.81z M1076.08,485.79c4.09-4.39,2.04-7.43-0.19-10.06c-2.75-3.24-6.14-2.71-9.43-0.62
			c-3.7,2.35-4.45,5.68-2.88,9.53c1.43,3.49,3.91,5.25,8.75,3.59c-0.99-1.34-1.72-2.34-2.46-3.33c-0.86-1.15-1.74-2.29-2.61-3.43
			c1.42-1.04,2.74-2.35,4.33-2.92c0.4-0.14,1.73,2.06,2.5,3.27C1074.74,482.84,1075.19,483.98,1076.08,485.79z M840.1,491.14
			c-4.78,0-6.18,3.42-6.64,7.14c-0.52,4.23,2.43,6.41,6.01,7.4c3.7,1.03,7.06,0.2,8.72-3.72c1.34-3.16,1.79-6.3-1.21-8.26
			c-5.19,0.32,1.2,9.76-6.46,6.97C833.43,498.08,842.8,494.68,840.1,491.14z M951.04,681.05c1.43,5.11,4.71,5.22,8.06,5.01
			c3.47-0.22,5.48-2.21,5.89-5.61c0.43-3.6,0.33-7.63-3.75-8.7c-2.66-0.7-5.89,0.49-8.79,1.16c-0.48,0.11-0.57,1.93-0.84,2.96
			c1.31,0.04,2.63,0.12,3.94,0.11c1.32-0.02,3.62-0.51,3.77-0.13c0.55,1.42,0.83,3.28,0.33,4.65c-0.27,0.74-2.32,1.06-3.59,1.13
			C954.62,681.73,953.13,681.32,951.04,681.05z M1086.22,511.52c2.15,1.38,3.52,2.26,4.88,3.14c0.41-0.79,1.32-1.71,1.15-2.34
			c-0.92-3.35-2.05-6.66-3.28-9.92c-0.2-0.54-1.3-1.11-1.89-1.03c-0.65,0.09-1.57,0.84-1.71,1.45c-0.24,1.05,0.03,2.22,0.1,3.53
			c-2.5,0.87-4.95,1.46-7.12,2.6c-0.93,0.49-1.26,2.1-1.86,3.21c1.06,0.46,2.21,1.44,3.16,1.28
			C1082.06,513.01,1084.4,512.08,1086.22,511.52z M952.51,412.47c-3.92,0.28-6.74,0.36-9.51,0.76c-0.92,0.13-1.72,1.11-2.57,1.71
			c0.71,0.73,1.44,1.43,2.12,2.18c0.97,1.07,2.3,2.02,2.77,3.29c0.62,1.66,0.34,3.63,0.85,5.34c0.25,0.83,1.58,2.07,2.12,1.93
			c0.99-0.25,2.25-1.26,2.49-2.19c0.36-1.36,0.11-2.97-0.2-4.41c-0.5-2.33-0.62-4.2,2.31-5.03c0.66-0.19,1.54-1.93,1.29-2.47
			C953.83,412.81,952.52,412.48,952.51,412.47z M893.84,436.33c0.64-2.8,1.02-4.48,1.41-6.15c-1.58,0.4-3.27,0.57-4.72,1.25
			c-1.95,0.91-3.8,2.09-5.5,3.41c-0.76,0.59-1.04,1.79-1.54,2.71c0.96,0.36,1.94,0.69,2.89,1.08c1.33,0.55,2.86,0.89,3.89,1.8
			c1.08,0.95,1.46,2.7,2.54,3.64c0.88,0.77,2.36,0.86,3.57,1.25c0.21-1.24,0.92-2.68,0.52-3.67
			C896.04,439.52,894.61,437.61,893.84,436.33z M1071.09,621.94c-8.95-5.42-8.95-5.42-10.86-1.55c0.71,0.6,1.5,1.19,2.21,1.86
			c2.21,2.08,7.21,2.66,4.18,7.62c1.13,0.45,3.04,1.54,3.27,1.26c2.29-2.83,4.35-5.85,6.32-8.91c0.3-0.46,0.05-1.66-0.37-2.08
			c-0.47-0.46-1.62-0.78-2.15-0.51C1072.72,620.1,1072.01,621.07,1071.09,621.94z M855.96,620.34c-1.2,0.92-2.37,1.58-3.22,2.53
			c-1.51,1.7-6.3,1.8-3.9,5.41c2.59,3.9,4.85-0.36,6.77-1.58c7.72-4.9,7.68-5.07,1.89-11.84c-0.68-0.8-2.06-0.99-3.12-1.47
			c-0.03,1.27-0.28,2.58-0.03,3.79C854.55,618.25,855.34,619.19,855.96,620.34z M849.45,600.47c-0.44,0.01-0.88,0.03-1.32,0.04
			c-0.34,1.16-1.31,2.65-0.91,3.44c2.05,4.02-0.02,5.77-3.35,7.12c-0.91,0.37-1.99,0.77-2.53,1.5c-0.56,0.76-1.03,2.18-0.67,2.87
			c0.36,0.71,2.03,1.48,2.67,1.2c3.32-1.46,6.57-3.15,9.67-5.03c0.62-0.38,0.99-2.17,0.65-2.95
			C852.45,605.84,850.88,603.18,849.45,600.47z M834.92,604.21c4.9-2.09,9.21-3.92,13.92-5.93c-0.92-1.69-1.58-2.9-2.32-4.26
			c-4.6,1.9-8.82,3.65-13.26,5.48C833.84,601.12,834.26,602.3,834.92,604.21z M853.19,633.46c0.07,0.73,0.13,1.47,0.2,2.2
			c1.63,0,3.6,0.59,4.82-0.12c2.55-1.48,4.85-3.5,6.93-5.61c0.72-0.73,0.47-2.4,0.66-3.65c-1.29-0.03-2.95-0.59-3.79,0.01
			C858.92,628.47,856.11,631.04,853.19,633.46z M1091.66,517.74c-3.95,0.87-7.21,1.43-10.34,2.39c-0.85,0.26-1.98,1.96-1.78,2.64
			c0.27,0.88,1.82,2.06,2.67,1.95c3.25-0.42,6.5-1.13,9.63-2.11c0.89-0.28,1.93-1.84,1.89-2.77
			C1093.69,519.03,1092.23,518.28,1091.66,517.74z M862.59,454.41c2.88,2.46,5.66,5.05,8.7,7.29c0.87,0.64,2.48,0.27,3.74,0.37
			c-0.12-1.26,0.2-2.87-0.45-3.73c-1.68-2.21-3.88-4.02-5.73-6.12C866.55,449.61,864.83,449.89,862.59,454.41z M1011.42,673.06
			c1.65-2.5,3.37-3.97,3.2-5.18c-0.18-1.27-2.04-2.85-3.43-3.17c-0.75-0.17-2.86,1.97-2.88,3.1
			C1008.28,669.16,1009.83,670.54,1011.42,673.06z M912.48,667.01c-2.52-1.46-3.9-2.89-5.21-2.83c-1.1,0.05-3.14,2.12-2.95,2.79
			c0.39,1.39,1.87,3.25,3.11,3.42C908.59,670.55,910.01,668.77,912.48,667.01z"/>
		<path class="st1" d="M961,722c-2.42-9.24-4.85-18.48-7.44-28.33c6.06,0,11.23,0,16.88,0c-2.89,9.68-5.67,19.01-8.44,28.33
			C961.67,722,961.33,722,961,722z"/>
		<path class="st1" d="M872.51,545.86c-8.82,0.05-17.65,0.05-26.47,0.18c-2.73,0.04-3.79-0.75-3.57-3.78
			c4.09-57.54,46.18-102.37,103.4-110c11.15-1.49,11.15-1.49,11.15,9.52c0,32.68-0.13,65.37,0.13,98.05
			c0.04,5.22-1.55,6.36-6.47,6.29c-20.98-0.29-41.97-0.18-62.95-0.21c3.56-2.87,7.85-5.21,8.1-10.57
			c0.29-6.33-5.89-15.62-12.01-18.2c-5.16-2.17-9.9-0.22-15.65,6.41c-0.28,0.32-0.78,0.44-1.18,0.64c0.01-1.39,0.38-2.9-0.03-4.14
			c-1.33-3.95-2.85-7.86-4.63-11.62c-0.17-0.37-3.59-0.07-3.93,0.65c-2.41,5.14,3.15,14.47,8.68,15.02
			c-0.35,1.05-0.59,2.15-1.06,3.15C862.02,535.66,864.15,541.81,872.51,545.86z M944.04,477.12c-1.36-0.91-2.87-1.66-4.05-2.77
			c-6.48-6.11-13.58-5.82-19.15,0.86c-0.91,1.1-1.95,2.09-2.92,3.11c-0.05-0.65-0.27-1.34-0.14-1.95c1.09-5.09-0.35-9.58-3.47-13.51
			c-0.78-0.98-2.46-1.24-3.72-1.83c-0.48,1.18-1.28,2.33-1.37,3.53c-0.45,5.84,3.04,11.18,8.7,13.66c-0.28,0.91-0.48,1.86-0.87,2.72
			c-4.58,10.06-0.5,17.46,10.48,18.88c1.97,0.25,3.98,0.36,5.96,0.29c10.89-0.38,16.22-9.4,11.43-19.17
			c-0.58-1.17-0.64-2.59-0.95-3.9c7-1.43,11.14-11.53,6.94-16.95C945.09,462.95,942.92,468.32,944.04,477.12z M929.12,461.31
			c0.3-0.1,0.6-0.2,0.9-0.3c-1.37-3.84-2.59-7.75-4.22-11.48c-0.38-0.88-2.12-1.62-3.21-1.59c-0.65,0.01-1.89,1.74-1.78,2.55
			c0.68,4.99,1.5,9.98,2.68,14.87c0.25,1.05,2.17,1.69,3.33,2.52c0.77-1.35,1.66-2.65,2.25-4.08
			C929.37,463.08,929.12,462.14,929.12,461.31z M878.26,507.74c0.23-0.1,0.46-0.19,0.69-0.29c-1.38-3.85-2.41-7.88-4.25-11.5
			c-1.27-2.5-3.55-3.16-5,0.35c-1.58,3.84,0.4,13.69,3.34,16.55c2.2,2.15,3.86,1.65,4.74-1.17
			C878.19,510.44,878.12,509.06,878.26,507.74z M933.42,462.27c0.21,0.06,0.42,0.12,0.63,0.18c0,0.67-0.21,1.43,0.04,1.98
			c0.71,1.55,1.61,3.01,2.43,4.5c1.2-1.02,3.13-1.85,3.47-3.1c1.17-4.42,1.97-8.97,2.5-13.52c0.12-1.04-1.44-2.27-2.23-3.42
			c-1.12,0.85-2.8,1.48-3.26,2.6C935.56,454.98,934.58,458.66,933.42,462.27z M882.18,508.57c0.28,0.1,0.55,0.19,0.83,0.29
			c0,0.67-0.18,1.4,0.04,1.99c0.55,1.47,1.28,2.87,1.93,4.3c1.36-1,3.6-1.77,3.91-3.03c1.14-4.59,1.74-9.34,2.27-14.05
			c0.1-0.88-1.08-2.71-1.63-2.69c-1.1,0.03-2.76,0.78-3.14,1.68C884.77,500.79,883.55,504.71,882.18,508.57z M902.56,510.63
			c-1.1-1.65-1.63-3.27-2.69-3.77c-0.72-0.34-2.83,0.63-3.2,1.49c-1.61,3.7-2.96,7.54-4.04,11.42c-0.24,0.87,0.99,2.15,1.54,3.24
			c1.12-0.57,2.75-0.85,3.26-1.76C899.32,517.85,900.85,514.25,902.56,510.63z"/>
		<path class="st1" d="M1039.56,461.52c5.64,6.72,11.7,13.14,16.83,20.22c13.1,18.08,19.73,38.57,21.32,60.76
			c0.07,0.94-0.17,1.9-0.33,3.43c-20.92,0-41.63,0-62.33,0c5.48-4.85,7.71-10.89,7.27-18.2c-0.46-7.56-4.27-12.85-11.59-16.78
			c4.49-1.92,8.19-5.07,11.12-4.46c9.3,1.91,17.41,7.87,20.12,18.49c1.04,4.1,2.89,8.13,5.13,11.73c2.01,3.25,5.05,5.86,7.63,8.75
			c0.32-0.32,0.64-0.64,0.96-0.95c-2.91-3.79-6.33-7.3-8.59-11.45c-2.34-4.31-3.4-9.29-5.32-13.85c-0.81-1.93-2.01-4.03-3.64-5.23
			c-5.35-3.96-10.98-7.55-16.66-11.39c0.42-1.19,1.13-3.21,1.89-5.37c4.93-0.68,9.89-1.21,14.78-2.1c4.68-0.84,7.42,1.26,9.7,5.06
			c2.11,3.52,4.72,6.73,7.11,10.08c0.4-0.28,0.79-0.57,1.19-0.85c-2.81-4.18-5.59-8.37-8.44-12.52c-2.07-3.01-4.72-4.22-8.57-3.54
			c-5.18,0.92-10.46,1.23-15.64,1.8c-0.71-2.71-1.34-5.09-1.98-7.54c1.08-0.89,2.29-1.88,3.49-2.88c-6.09,2.73-8.38-4.02-11.91-4.31
			c1.5-2.93,2.96-5.82,4.46-8.67c0.45-0.86,0.95-1.72,1.57-2.47c4.61-5.57,3.91-11.94-2.32-17.38c0.7,5.55,7.71,10.67,1.38,15.64
			c-3.05-1.96-5.73-5.03-8.35-4.99c-2.66,0.04-5.28,3.15-7.99,4.97c-5.08-5.27,0.27-10.3,1.14-15.78
			c-2.36,3.64-5.49,8.04-4.58,11.31c1.71,6.12,3.18,13.17,9.97,16.72c-3.01,1.88-5.87,3.68-8.44,5.29c-7.13-2.36-8.7-8.26-9.7-14.45
			c-1.06-6.58-6.12-9.51-11.24-12.42c0.81,1.78,2.47,2.78,3.69,4.17c2.03,2.34,4.9,4.71,5.43,7.45c1.44,7.45,3.4,14.18,10.88,17.29
			c-0.82,2.94-1.48,5.3-2.16,7.72c-4.31-0.29-8.44-0.44-12.55-0.88c-6.96-0.74-11.75,2.17-15.23,8.09c-1.65,2.8-3.96,5.21-5.98,7.8
			c-0.03-24.33,0.03-48.67-0.17-73c-0.03-4.03,1.29-5.23,5.18-4.99c24.76,1.54,46.59,10.46,65.95,25.76
			c1.04,0.82,2.09,1.65,3.14,2.47c-4.36,2.75-7.59,6.22-7.85,10.88C1032.58,467.98,1036.07,464.75,1039.56,461.52z"/>
		<path class="st2" d="M887.05,551.98c0.62-0.26,1.23-0.51,1.85-0.77c-0.58,2.42-1.16,4.85-1.75,7.34
			c4.37-0.64,8.46-1.24,12.55-1.83c0.12,0.43,0.25,0.87,0.37,1.3c-2.66,1.61-5.31,3.22-8.58,5.2c8.69,3.04,0.02,8.14,2.45,11.19
			c6.84-0.54,13.37-1.14,19.92-1.56c7.28-0.47,14.52-0.37,21.13-4.57c3.47-2.2,7.6-2.51,10.67,1.65c0.75,1.02,2.04,1.68,3.16,2.36
			c7.11,4.34,8.17,9.66,1.92,15.13c-6.44,5.64-13.92,10.07-20.57,15.48c-1.84,1.5-2.52,4.55-3.33,7.03
			c-0.12,0.37,1.9,1.87,3.09,2.15c3.02,0.7,4.99-0.62,6.11-3.63c0.65-1.74,1.97-3.22,2.99-4.82c0.38,0.21,0.76,0.43,1.14,0.64
			c0,1.04,0,2.09,0,3.87c2.19-2.09,3.87-3.7,6.06-5.8c0,2.07,0,3.31,0,4.82c2.47-0.38,4.7-0.72,6.93-1.07
			c0.17,0.3,0.34,0.59,0.5,0.89c-1.94,1.37-3.88,2.74-5.94,4.19c1.82,1.06,3.25,1.89,4.66,2.71c-4.74,1.72-8.84,3.41-13.07,4.67
			c-4.59,1.36-9.26,2.66-13.98,3.25c-1.54,0.19-4.18-1.5-4.92-3.02c-3.25-6.59-5.04-7.21-11.35-2.93c4,9.55,3.26,15.35-2.67,20.77
			c15.31,4.18,15.31,4.18,16.4,7.52c-2.11,0-4.14,0-6.54,0c1.26,1.32,2.17,2.29,3.08,3.25c-0.17,0.48-0.35,0.97-0.52,1.45
			c-3.23-0.76-6.46-1.53-9.69-2.29c-0.06,0.3-0.12,0.61-0.17,0.91c1.34,1.27,2.68,2.54,4.02,3.81c-0.34,0.57-0.67,1.14-1.01,1.7
			c-2.7-1.42-5.86-2.34-8.02-4.35c-5.77-5.35-12.36-8.86-19.92-10.72c0,0,0.06,0.08,0.06,0.08c-0.35-0.37-0.7-0.73-1.05-1.1
			c0,0,0.07,0.05,0.07,0.05c-0.68-0.32-1.36-0.65-2.04-0.97c-1.33-1.16-2.6-2.4-4.01-3.45c-6.86-5.16-12.87-10.96-15.34-19.55
			c0.48-7.7,8.15-3.01,10.52-5.64c-0.71-4.49-1.3-8.27-1.96-12.42c-1.07,0.6-2.14,1-2.97,1.69c-2.87,2.38-6.11,5.38-9.68,2.74
			c-3.88-2.87-1.87-7.3,0.07-10.4C866.09,575.54,872.73,560.68,887.05,551.98z M934.57,588.6c1.05,0.87,2.46,3.01,3.9,3.03
			c3.87,0.06,6.06-2.81,6.14-6.39c0.03-1.42-2.14-4.06-3.41-4.12C937.29,580.93,935.61,583.91,934.57,588.6z"/>
		<path class="st1" d="M1031.02,643.04c-18.4,14.39-39.5,21.63-62.55,23.85c-3.92,0.38-5.6-0.57-5.57-5.03
			c0.17-35.3,0.13-70.6,0.04-105.9c-0.01-3.29,0.76-4.81,4.41-4.79c19.98,0.13,39.96,0.05,59.95,0.1c1.28,0,2.56,0.51,3.84,0.78
			c-6.08,11.52-12.16,23.05-18.22,34.52c-27.59-21.77-33.33-25.29-40.96-24.93c6.86,13.9,13.67,27.7,20.77,42.06
			c-8.95,6.4-20.37,11.81-28.54,22.05c12.05,0,23.43,0,36.29,0c0,10.12,0,20.23,0,30.35c0.84,0.16,1.68,0.32,2.52,0.47
			c6.25-12.7,16.09-23.63,17.1-38.9c0.59-0.06,1.17-0.11,1.76-0.17C1024.9,626.02,1027.96,634.53,1031.02,643.04z"/>
		<path class="st1" d="M884.03,637.91c7.56,1.86,14.16,5.37,19.92,10.72c2.16,2,5.32,2.93,8.02,4.35c0.34-0.57,0.67-1.14,1.01-1.7
			c-1.34-1.27-2.68-2.54-4.02-3.81c0.06-0.3,0.12-0.61,0.17-0.91c3.23,0.76,6.46,1.53,9.69,2.29c0.17-0.48,0.35-0.97,0.52-1.45
			c-0.91-0.96-1.83-1.92-3.08-3.25c2.4,0,4.42,0,6.54,0c-1.09-3.35-1.09-3.35-16.4-7.52c5.93-5.42,6.67-11.22,2.67-20.77
			c6.31-4.28,8.1-3.66,11.35,2.93c0.75,1.52,3.38,3.21,4.92,3.02c4.73-0.6,9.39-1.89,13.98-3.25c4.23-1.26,8.33-2.95,13.07-4.67
			c-1.42-0.82-2.84-1.65-4.66-2.71c2.06-1.46,4-2.82,5.94-4.19c-0.17-0.3-0.34-0.59-0.5-0.89c-2.23,0.34-4.46,0.69-6.93,1.07
			c0-1.51,0-2.75,0-4.82c-2.19,2.09-3.88,3.7-6.06,5.8c0-1.79,0-2.83,0-3.87c-0.38-0.21-0.76-0.43-1.14-0.64
			c-1.02,1.6-2.34,3.08-2.99,4.82c-1.12,3.01-3.09,4.34-6.11,3.63c-1.19-0.28-3.21-1.78-3.09-2.15c0.81-2.47,1.49-5.53,3.33-7.03
			c6.66-5.41,14.13-9.84,20.57-15.48c6.25-5.47,5.19-10.78-1.92-15.13c-1.13-0.69-2.42-1.35-3.16-2.36
			c-3.07-4.16-7.2-3.85-10.67-1.65c-6.61,4.2-13.86,4.11-21.13,4.57c-6.55,0.42-13.09,1.02-19.92,1.56
			c-2.43-3.04,6.25-8.15-2.45-11.19c3.27-1.98,5.92-3.59,8.58-5.2c-0.12-0.43-0.25-0.87-0.37-1.3c-4.09,0.6-8.18,1.2-12.55,1.83
			c0.6-2.49,1.17-4.92,1.75-7.34c20.83,0.01,41.66,0.12,62.49-0.07c4.29-0.04,5.74,1.05,5.71,5.57c-0.18,35-0.16,69.99-0.02,104.99
			c0.02,4.2-1.23,5.56-5.41,5.19c-24.4-2.18-46.3-10.55-65.44-25.92C885.29,640.22,884.75,638.94,884.03,637.91z"/>
		<path class="st2" d="M1031.02,643.04c-3.06-8.51-6.12-17.02-9.18-25.53c-0.59,0.06-1.17,0.11-1.76,0.17
			c-1.01,15.27-10.85,26.2-17.1,38.9c-0.84-0.16-1.68-0.32-2.52-0.47c0-10.12,0-20.23,0-30.35c-12.86,0-24.25,0-36.29,0
			c8.17-10.24,19.59-15.65,28.54-22.05c-7.09-14.37-13.9-28.16-20.77-42.06c7.63-0.37,13.37,3.16,40.96,24.93
			c6.05-11.47,12.14-22.99,18.22-34.52c0.21,0.15,0.42,0.16,0.64,0.03c3.9,14.95,4.26,30.06,1.5,45.65
			c8.77,2.82,17.11,5.46,25.42,8.23c0.85,0.28,1.46,1.32,2.18,2c0,0,0.05-0.06,0.05-0.06c-11.41,7.62-23.77,11.26-38.28,7.46
			c5.11,8.53,9.36,15.62,13.6,22.71C1034.51,639.73,1032.77,641.38,1031.02,643.04z"/>
		<path class="st2" d="M963.08,509.86c2.01-2.59,4.33-5,5.98-7.8c3.48-5.92,8.27-8.83,15.23-8.09c4.1,0.44,8.24,0.59,12.55,0.88
			c0.68-2.42,1.34-4.79,2.16-7.72c-7.48-3.11-9.44-9.85-10.88-17.29c-0.53-2.74-3.4-5.11-5.43-7.45c-1.21-1.39-2.87-2.4-3.69-4.17
			c5.11,2.91,10.18,5.85,11.24,12.42c1,6.19,2.57,12.09,9.7,14.45c2.57-1.61,5.44-3.4,8.44-5.29c-6.79-3.55-8.26-10.6-9.97-16.72
			c-0.91-3.27,2.22-7.67,4.58-11.31c-0.88,5.48-6.23,10.51-1.14,15.78c2.71-1.82,5.33-4.92,7.99-4.97c2.63-0.04,5.3,3.03,8.35,4.99
			c6.33-4.97-0.67-10.09-1.38-15.64c6.23,5.44,6.94,11.81,2.32,17.38c-0.62,0.74-1.11,1.61-1.57,2.47c-1.5,2.86-2.96,5.74-4.46,8.67
			c3.53,0.29,5.82,7.04,11.91,4.31c-1.21,0.99-2.41,1.99-3.49,2.88c0.64,2.45,1.27,4.83,1.98,7.54c5.18-0.57,10.47-0.87,15.64-1.8
			c3.85-0.69,6.5,0.53,8.57,3.54c2.85,4.15,5.63,8.34,8.44,12.52c-0.4,0.28-0.79,0.57-1.19,0.85c-2.39-3.35-5-6.57-7.11-10.08
			c-2.28-3.81-5.02-5.91-9.7-5.06c-4.89,0.88-9.85,1.41-14.78,2.1c-0.76,2.16-1.47,4.18-1.89,5.37c5.68,3.84,11.31,7.43,16.66,11.39
			c1.63,1.2,2.83,3.3,3.64,5.23c1.91,4.56,2.98,9.55,5.32,13.85c2.25,4.15,5.68,7.66,8.59,11.45c-0.32,0.32-0.64,0.64-0.96,0.95
			c-2.58-2.89-5.62-5.5-7.63-8.75c-2.23-3.6-4.08-7.64-5.13-11.73c-2.7-10.62-10.81-16.58-20.12-18.49
			c-2.93-0.6-6.64,2.55-11.12,4.46c7.32,3.93,11.13,9.22,11.59,16.78c0.44,7.31-1.79,13.35-7.27,18.2c-3.67,0-7.34,0-11.01,0
			c-5.79-4.92-7.83-11.27-7.21-18.68c0.65-7.75,4.27-13.33,12.39-15.9c-3.38-1.95-6.16-3.56-8.81-5.09
			c-1.77,0.75-3.4,1.66-5.13,2.14c-8.81,2.43-14.01,8.43-16.9,16.79c-0.81,2.35-1.23,4.9-2.42,7.04c-2.53,4.55-5.44,8.89-8.2,13.32
			c2.58-7.52,6.2-14.28,8.99-21.37c3.3-8.37,8.27-14.63,17.2-17.22c1.84-0.54,3.55-1.54,5.24-2.29c-2.29-8.34-2.29-8.35-10.23-8.65
			c-1.83-0.07-3.67,0.01-5.48-0.19c-5.85-0.63-9.63,2.1-12.68,6.9c-2.27,3.58-5.31,6.68-8,9.99
			C959.05,511.4,963,510.81,963.08,509.86z"/>
		<path class="st1" d="M1060.88,607.96c-0.72-0.69-1.33-1.72-2.18-2c-8.31-2.77-16.65-5.41-25.42-8.23
			c2.76-15.59,2.4-30.7-1.5-45.65c2.77-0.29,5.53-0.79,8.3-0.82c10.96-0.09,21.91,0,32.87-0.06c3.02-0.01,5.16,0.35,4.85,4.31
			c-1.35,17.43-5.69,33.99-13.99,49.42C1063.18,606.14,1061.88,606.97,1060.88,607.96z"/>
		<path class="st1" d="M962.82,512.7c2.69-3.31,5.73-6.41,8-9.99c3.05-4.8,6.82-7.53,12.68-6.9c1.81,0.2,3.65,0.12,5.48,0.19
			c7.94,0.3,7.94,0.3,10.23,8.65c-1.7,0.76-3.4,1.76-5.24,2.29c-8.93,2.6-13.9,8.85-17.2,17.22c-2.8,7.09-6.41,13.85-8.99,21.37
			c2.76-4.43,5.67-8.77,8.2-13.32c1.19-2.13,1.61-4.69,2.42-7.04c2.89-8.35,8.09-14.35,16.9-16.79c1.74-0.48,3.36-1.39,5.13-2.14
			c2.65,1.53,5.43,3.14,8.81,5.09c-8.12,2.58-11.74,8.15-12.39,15.9c-0.62,7.41,1.42,13.76,7.21,18.68
			c-12.3-0.02-24.61-0.16-36.91,0.04c-3.45,0.05-4.22-1.25-4.19-4.35C963.02,531.98,962.88,522.34,962.82,512.7z"/>
		<path class="st1" d="M887.05,551.98c-14.32,8.7-20.96,23.55-29.35,36.95c-1.94,3.09-3.95,7.53-0.07,10.4
			c3.57,2.64,6.81-0.35,9.68-2.74c0.83-0.69,1.89-1.09,2.97-1.69c0.65,4.15,1.25,7.93,1.96,12.42c-2.37,2.64-10.04-2.06-10.52,5.64
			c-3.74-6.8-7.97-13.37-11.09-20.44c-5.22-11.81-7.38-24.46-8.19-37.3c-0.08-1.26,1.52-3.77,2.35-3.77
			C858.87,551.45,872.96,551.75,887.05,551.98z"/>
		<path class="st2" d="M866.97,524.2c0.4-0.21,0.9-0.33,1.18-0.65c5.76-6.63,10.49-8.59,15.65-6.41
			c6.13,2.58,12.31,11.87,12.01,18.2c-0.25,5.36-4.54,7.7-8.1,10.57c-5.07-0.02-10.14-0.03-15.21-0.05
			c-8.36-4.05-10.49-10.2-6.51-18.62c0.47-0.99,0.71-2.09,1.06-3.15C867.05,524.09,866.97,524.2,866.97,524.2z"/>
		<path class="st1" d="M962.19,361.06c2.52,8.74,5.04,17.48,7.56,26.22c0.37,1.28,0.87,2.54,1.05,3.85
			c0.43,3.12,2.08,8.11,0.81,9.05c-4,2.95-8.61,6.68-14.46,3.13c-2.08-1.26-4.54-1.88-7.32-2.99c3.85-13.3,7.6-26.26,11.36-39.23
			C961.52,361.07,961.86,361.07,962.19,361.06z"/>
		<path class="st1" d="M1036.25,638.07c-4.25-7.09-8.49-14.18-13.6-22.71c14.51,3.8,26.87,0.16,38.28-7.46
			c-2.5,4.37-4.42,9.25-7.64,13.01C1048.06,627.01,1041.98,632.39,1036.25,638.07z"/>
		<path class="st1" d="M790.89,548.41c8.7-2.19,17.4-4.38,26.68-6.71c0,5.4,0,10.11,0,16.04c-8.98-2.74-17.85-5.44-26.71-8.14
			C790.87,549.21,790.88,548.81,790.89,548.41z"/>
		<path class="st1" d="M1104.32,541.19c9.22,2.82,17.99,5.51,26.76,8.19c0.02,0.37,0.04,0.74,0.06,1.11
			c-8.76,2.25-17.53,4.49-26.82,6.88C1104.32,551.58,1104.32,546.71,1104.32,541.19z"/>
		<path class="st1" d="M861.55,473.53c-0.06,1.31-0.12,2.61-0.18,3.92c-1.16-0.31-2.54-0.32-3.44-0.99
			c-2.92-2.15-5.66-4.54-8.55-6.92c1.51-4.95,4.61-5.12,8.47-3.36c0.38,0.12,0.76,0.25,1.14,0.38c-0.21-0.33-0.42-0.65-0.63-0.98
			c-0.52-1.02-1.51-2.07-1.47-3.07c0.06-1.59,0.46-3.43,1.41-4.6c0.49-0.6,2.84-0.46,3.74,0.19c3.05,2.2,5.83,4.78,10.23,8.48
			c-6.24-0.63-4.32,7.21-10.07,6.17c-0.72-0.16-1.44-0.32-2.16-0.48c-0.04,0.17-0.09,0.34-0.13,0.51
			C860.46,473.03,861.01,473.28,861.55,473.53z"/>
		<path class="st1" d="M831.27,568.84c-2.43-0.43-4.09-0.25-4.86-0.98c-1.12-1.06-2.19-2.81-2.14-4.23c0.03-0.9,2.09-2.33,3.35-2.45
			c3.61-0.34,7.27-0.14,10.91-0.15c-1.09,1.33-2.17,2.66-3.32,4.06c0.83,0.39,2.59,1.2,4.35,2.01c-0.73,1.56-1.45,3.11-2.18,4.67
			c0.81,0.62,2.1,1.62,3.4,2.62c-1.6,0.85-3.12,1.89-4.81,2.49c-1.54,0.54-3.29,0.99-4.86,0.78c-1.77-0.24-4.18-0.78-5-2.04
			c-1.58-2.45-0.12-4.29,2.66-5.03C829.36,570.44,829.83,569.88,831.27,568.84z"/>
		<path class="st1" d="M864.97,640.96c-2.31,0.76-4.91,3.7-6.8-1.21c3.12-2.12,6.12-4.39,9.37-6.23c1.11-0.63,3.45-0.78,4.12-0.08
			c0.79,0.82,0.55,2.81,0.41,4.26c-0.11,1.09-0.76,2.14-1.16,3.2c-0.11,0.11-0.22,0.22-0.34,0.33c0.08,0.08,0.22,0.25,0.24,0.24
			c0.13-0.07,0.23-0.2,0.35-0.3c2.71,0.07,5.57-4.51,7.72-0.72c0.9,1.59-1.2,5.12-2.35,7.58c-1,2.14-2.58,4-3.87,5.92
			c-4.67-1.88-1.61-4.57-1.51-6.82c0.11-0.1,0.23-0.2,0.35-0.3c-0.08-0.08-0.16-0.16-0.24-0.24c-0.1,0.12-0.21,0.23-0.31,0.35
			c-1.9,0.27-3.81,0.53-5.71,0.8c-0.05-2.22-0.1-4.44-0.16-6.67c0.05-0.16,0.11-0.31,0.16-0.47
			C865.15,640.73,865.06,640.84,864.97,640.96z"/>
		<path class="st1" d="M1081.31,557.81c2.13-2.5,4.25-5,6.51-7.65c-0.94-0.09-1.99,0.04-2.79-0.33c-1.01-0.47-1.82-1.37-2.72-2.08
			c0.95-0.87,1.82-2.35,2.87-2.5c2.44-0.35,5-0.24,7.47,0.05c1.47,0.17,2.86,1.03,4.28,1.58c-0.78,1.66-1.4,3.42-2.41,4.92
			c-0.6,0.89-1.81,1.38-3.2,2.38c0.9,0.42,1.44,0.59,1.88,0.9c1.25,0.87,2.47,1.8,3.7,2.71c-1.27,0.7-2.5,1.9-3.81,2.01
			c-3.44,0.29-6.92,0.1-10.38,0.1C1082.24,559.2,1081.77,558.51,1081.31,557.81z"/>
		<path class="st1" d="M1075.42,610.43c2.1,1.29,3.59,2.21,5.04,3.11c-1.67,4.61-5.52,3.83-14.03-2.64c1.14-3.58,1.14-3.58,8.9-5.54
			c-1.76-1.11-3.24-2.03-4.69-2.94c0.1-0.69,0.05-1.52,0.25-1.58c1.46-0.44,3.37-1.47,4.4-0.93c3.33,1.76,6.34,4.12,9.47,6.25
			c-0.98,1-1.79,2.38-2.98,2.9C1080.04,609.8,1078.05,609.91,1075.42,610.43z"/>
		<path class="st1" d="M1013.41,433.46c-1.15,1.74-1.94,2.95-2.71,4.11c-4.91-1.82-4.51-4.34,2.37-14.68
			c2.12,0.94,4.39,1.82,6.54,2.94c4.94,2.57,4.91,4.18,1.37,8.63c-1.4,1.76-1.36,4.67-1.99,7.13
			C1013.67,441.55,1015.26,436.66,1013.41,433.46z"/>
		<path class="st1" d="M1035.54,644.41c2.86-0.4,5.73-0.8,8.91-1.24c-0.26-0.6-0.96-1.51-1-2.45c-0.04-0.97,0.27-2.39,0.94-2.85
			c0.66-0.45,2.37-0.32,2.93,0.24c2.44,2.46,4.76,5.08,6.82,7.87c0.51,0.7,0.3,2.64-0.33,3.32c-1.66,1.81-3.52,3.78-5.72,4.63
			c-1.49,0.57-5.24-0.51-5.3-1.1c-0.42-4.47-3.98-5.07-7.1-6.33C1035.64,645.79,1035.59,645.1,1035.54,644.41z"/>
		<path class="st1" d="M839.09,484.25c1.59-0.54,3.18-1.07,4.77-1.62c1.09-0.38,2.18-0.77,3.27-1.15c-0.42-0.91-0.95-1.78-1.23-2.73
			c-0.35-1.19-0.51-2.44-0.75-3.66c1.3-0.09,2.81-0.66,3.87-0.19c2.56,1.13,4.88,2.8,7.36,4.14c3.13,1.68,2.31,3.41,1.18,4.51
			c-3.07,0.34-5.09,0.56-7.11,0.78c0.91,1.69,1.82,3.38,3.1,5.75c-0.3,0.46-1.06,1.61-1.98,3.01c-4.31-2.56-8.26-4.91-12.21-7.27
			C839.26,485.3,839.18,484.78,839.09,484.25z"/>
		<path class="st1" d="M878.66,458.24c-3.18-4.03-6.02-7.64-9.02-11.44c3.61-3.12,6.26-7.66,11.19-5.71
			c2.5,0.99,5.21,4.07,5.82,6.67C887.95,453.32,882.66,455.03,878.66,458.24z M880.24,451.8c0.55-0.19,1.09-0.38,1.64-0.57
			c-0.38-1.57-0.35-3.47-1.27-4.61c-0.72-0.9-2.6-0.88-3.96-1.27c-0.23,0.49-0.46,0.99-0.68,1.48
			C877.39,448.49,878.82,450.15,880.24,451.8z"/>
		<path class="st1" d="M969.25,682.37c2.42-3.25,10.44,2.89,8.62-5.68c-0.27-1.28-2.58-2.14-3.95-3.19
			c-0.37,0.43-0.75,0.86-1.12,1.29c0.75,0.94,1.51,1.89,2.84,3.55c-2.59,0.62-4.54,1.08-6.73,1.6c-1.27-3.7-2.8-6.87,1.96-8.89
			c4.59-1.96,9.09-1.21,11.13,2.15c2.22,3.64,1.23,9.08-2.02,11.1C976.04,686.76,971.96,686.06,969.25,682.37z"/>
		<path class="st1" d="M999.66,433.77c-4.63-0.09-8.47-3.47-8.5-7.46c-0.03-4.89,3.42-8.49,7.96-8.29c4.78,0.21,8.04,3.45,7.85,7.8
			C1006.79,430.33,1003.55,433.85,999.66,433.77z M1002.65,426.02c0.39-0.82,0.78-1.64,1.16-2.47c-1.37-0.47-3.2-1.72-4-1.25
			c-1.54,0.92-2.77,2.7-3.53,4.39c-0.22,0.48,1.61,1.89,2.49,2.87C1000.07,428.39,1001.36,427.2,1002.65,426.02z"/>
		<path class="st1" d="M921.99,428.86c-0.07,4.27-3.64,7.33-8.42,7.23c-4.19-0.09-7.45-3.77-7.41-8.36c0.03-3.83,4.17-7.4,8.58-7.4
			C918.74,420.34,922.07,424.25,921.99,428.86z M918.34,429.04c-2.01-1.8-3.24-3.11-4.72-3.99c-0.23-0.13-2.55,2.13-2.34,2.61
			c0.69,1.59,1.98,2.99,3.32,4.14C914.8,431.97,916.48,430.42,918.34,429.04z"/>
		<path class="st1" d="M921.58,676.07c0-3.09-0.8-5.88,0.24-7.46c0.95-1.43,3.94-2.22,5.96-2.1c3.78,0.24,5.07,1.91,6.13,6.3
			c-1.35,0.21-2.67,0.42-4.21,0.67c2.63,3.82,4.07,7.74-2.38,8.28c-2.28,0.19-4.76-2.11-7.15-3.27
			C920.78,677.43,921.4,676.37,921.58,676.07z"/>
		<path class="st1" d="M1089.73,526.9c4.33,0.23,7.19,3.41,7.1,7.88c-0.1,4.59-3.69,7.58-8.76,7.28c-4.61-0.27-7.22-3.46-6.94-8.47
			C1081.38,529.07,1084.52,526.63,1089.73,526.9z M1089.23,538.29c1.48-1.77,2.49-2.97,3.49-4.16c-1.26-0.77-2.63-2.27-3.77-2.11
			c-1.35,0.19-2.5,1.8-3.73,2.8C1086.31,535.77,1087.41,536.72,1089.23,538.29z"/>
		<path class="st1" d="M1048.27,444.38c3.63,3.28,8.6,5.23,7.4,10.29c-0.64,2.71-3.56,5.95-6.18,6.89c-5,1.78-7.33-3.12-10.91-6.47
			C1041.83,451.49,1044.95,448.04,1048.27,444.38z M1044.69,455.17c0.4,0.74,0.81,1.48,1.21,2.22c1.56-0.82,3.35-1.4,4.59-2.56
			c0.56-0.53,0.06-2.21,0.03-3.36C1048.58,452.7,1046.63,453.93,1044.69,455.17z"/>
		<path class="st1" d="M1057.04,639.52c-1.1-0.09-2.39-0.2-4.32-0.37c1.49-2.51,2.52-4.24,3.55-5.96c-0.32-0.31-0.64-0.62-0.96-0.93
			c-1.32,1.22-2.58,2.52-4,3.6c-0.52,0.4-1.91,0.6-2.08,0.34c-0.45-0.68-0.9-2.01-0.56-2.46c1.93-2.47,4.01-4.83,6.24-7.03
			c0.42-0.42,1.9-0.21,2.6,0.2c1.27,0.74,2.36,1.8,3.47,2.8c6.42,5.82,6.45,6.21,0.31,12.17c-0.84,0.82-2.13,1.18-3.21,1.75
			C1057.76,642.37,1057.44,641.1,1057.04,639.52z M1060.32,636.65c-0.06-0.12-0.1-0.31-0.19-0.35c-0.11-0.05-0.28,0.03-0.43,0.05
			c0.09,0.18,0.18,0.37,0.27,0.55C1060.09,636.81,1060.21,636.73,1060.32,636.65z"/>
		<path class="st1" d="M981.96,429.11c-5.32,0.06-8.02-2.37-8.04-7.2c-0.02-5.1,2.6-7.95,7.36-8c4.95-0.05,8.2,2.83,8.19,7.28
			C989.45,426.12,986.66,429.06,981.96,429.11z M982.24,417.57c-0.53,0.02-1.06,0.03-1.6,0.05c-0.59,1.64-1.59,3.28-1.6,4.92
			c0,0.94,1.63,1.88,2.53,2.82c0.99-1.53,2.37-2.96,2.79-4.63C984.58,419.91,983.01,418.64,982.24,417.57z"/>
		<path class="st1" d="M1085.03,593.48c-1.36,1.63-2.71,3.26-4.07,4.88c-0.44-0.26-0.88-0.53-1.31-0.79
			c0.34-1.98,0.69-3.97,1.03-5.95c-0.36-0.19-0.71-0.39-1.07-0.58c-0.78,1.35-1.42,2.81-2.38,4.01c-0.61,0.77-1.69,1.16-2.56,1.72
			c-0.3-0.95-0.61-1.89-0.88-2.84c-0.04-0.13,0.1-0.31,0.15-0.47c2.68-9.71,5.06-10.29,17.23-3.67c-1.01,2.93-1.96,6.05-3.2,9.05
			c-0.3,0.73-1.6,1.05-2.43,1.56c-0.3-0.83-0.89-1.68-0.82-2.47c0.13-1.41,0.67-2.78,1.04-4.17
			C1085.51,593.67,1085.27,593.57,1085.03,593.48z"/>
		<path class="st1" d="M827.94,541.95c0.6-0.78,1.05-1.76,1.82-2.3c1.39-0.98,3.15-2.59,4.41-2.32c1.62,0.35,3.48,2.01,4.22,3.59
			c1.82,3.9-0.1,7.64-4.62,9.54c-0.42-1.18-0.83-2.34-1.31-3.7c-3.31,3.46-6.86,5.18-8.92-0.74c-1.15-3.32-0.64-6.92,4.25-8.66
			c0.09,1.83,0.17,3.24,0.24,4.65c-0.32,0.63-0.64,1.27-0.96,1.9c0.29,0.07,0.58,0.14,0.87,0.21
			C827.94,543.4,827.94,542.67,827.94,541.95z M835.1,543.45c-0.39-0.35-0.74-0.9-1.01-0.86c-0.34,0.05-0.93,0.69-0.86,0.87
			c0.18,0.46,0.65,0.81,1.01,1.21C834.5,544.3,834.76,543.94,835.1,543.45z"/>
		<path class="st1" d="M932.07,415.5c1.73-0.41,2.95-0.7,4.53-1.08c0.71,2.65,1.46,5.01,1.95,7.42c1.01,4.93-0.52,7.49-5.02,8.7
			c-4.8,1.29-7.55-0.26-9.06-5.16c-0.44-1.43-0.68-2.92-1.07-4.36c-0.92-3.47,0.62-4.55,4.16-4.11c0.49,2.09,0.7,4.29,1.55,6.21
			c0.62,1.39,2.09,2.4,3.18,3.58c0.41-1.59,1.18-3.18,1.13-4.76C933.37,419.98,932.64,418.05,932.07,415.5z"/>
		<path class="st1" d="M835.77,517.76c-2.64,1.5-6.12,2.69-7.07-0.84c-0.71-2.62,1.24-6.01,2.26-8.96c0.07-0.2,2.36,0.37,3.52,1.29
			c2.91-1.16,6.05-2.55,8.38,1.32c2.11,3.51,0.78,6.95-1.83,9.48c-1.95,1.9-4.65,2.9-4.71-1.74c0.22-0.44,0.44-0.89,0.66-1.33
			c1.08-0.83,2.15-1.66,3.23-2.48c-0.51-0.43-1.03-0.86-1.54-1.29c-0.54,1.28-1.08,2.56-1.63,3.84
			C836.62,517.28,836.19,517.52,835.77,517.76z"/>
		<path class="st1" d="M1061.13,457.18c4.04,2.17,2.28,3.86,0.13,6.05c-1.62,1.66-2.57,3.97-3.82,5.99
			c2.22-0.88,4.49-1.68,6.66-2.68c1.17-0.54,2.18-1.44,3.21-2.14c3.07,1.9,3.18,3.48,0.44,5.76c-6.96,5.81-9.94,6.21-13.71,1.31
			C1050.28,466.61,1051.73,463.6,1061.13,457.18z"/>
		<path class="st1" d="M1040.31,448.09c-2.57-1.18-4.52-2.08-6.48-2.97c-0.23,0.33-0.47,0.67-0.7,1c1.33,1.22,2.79,2.35,3.94,3.73
			c0.46,0.56,0.44,1.74,0.23,2.53c-0.07,0.27-1.61,0.54-2.11,0.22c-2.39-1.49-4.79-3.03-6.87-4.89c-0.64-0.57-0.64-2.34-0.33-3.37
			c0.37-1.21,1.35-2.26,2.16-3.31c5.69-7.38,3.38-7.66,11.87-1.77c1.04,0.72,1.59,2.17,2.36,3.28c-1.24,0.46-2.48,0.91-4.08,1.5
			C1040.31,444.83,1040.31,446.13,1040.31,448.09z M1039.01,441.97c-0.57-0.43-0.89-0.85-1.26-0.89c-0.26-0.03-0.59,0.43-0.89,0.67
			c0.32,0.3,0.6,0.74,0.98,0.85C1038.09,442.67,1038.48,442.27,1039.01,441.97z"/>
		<path class="st1" d="M957.94,420.27c-0.12-4.61-1.16-8.99,5.51-8.23c5.64,0.65,8.55,3.28,8.19,8.4c-0.37,5.3-3.13,6.93-10.44,6.71
			C954.47,426.95,958.54,422.28,957.94,420.27z M961.92,423.83c4.72-0.65,5.27-2.92,4.53-5.54c-0.25-0.89-1.87-1.38-2.87-2.05
			C963.07,418.56,962.57,420.88,961.92,423.83z"/>
		<path class="st1" d="M840.72,577.46c1.53,5.26,2.89,9.93,4.41,15.14c-4.31-0.27-9.02-0.28-13.62-0.98
			c-2.67-0.4-3.25-4.39-0.97-6.32C833.78,582.55,837.27,580.09,840.72,577.46z"/>
		<path class="st1" d="M1076,507.39c-2.65-6.29-4.49-10.64-6.73-15.97c4.46-0.12,9.15-0.51,13.77-0.12
			c0.78,0.06,2.38,4.12,1.73,5.16C1082.42,500.19,1079.28,503.43,1076,507.39z"/>
		<path class="st1" d="M999.9,680.33c-3,0.79-5.53,1.95-8.05,1.95c-1.74,0-4.6-1.31-4.94-2.57c-0.46-1.7,0.46-4.67,1.83-5.73
			c1.92-1.48,3.81-2.22,3.42-5.2c-0.09-0.7,1.48-1.97,2.5-2.3c0.48-0.16,1.91,1.16,2.17,2.03
			C997.97,672.26,998.83,676.11,999.9,680.33z"/>
		<path class="st1" d="M946.53,685.5c-3.02-0.41-5.69-0.26-7.85-1.25c-1.57-0.72-3.56-3.08-3.38-4.43c0.24-1.73,2.22-4.02,3.92-4.54
			c2.27-0.7,4.51-0.45,5-3.6c0.09-0.55,2.1-1.43,2.62-1.13c0.89,0.52,1.81,1.86,1.81,2.85c0,2.3-0.48,4.6-0.88,6.88
			C947.49,681.88,947.02,683.45,946.53,685.5z"/>
		<path class="st1" d="M1087.56,584.81c0.81-2.34,1.5-3.71,1.72-5.14c0.2-1.28,0.35-3.4-0.31-3.8c-1.23-0.76-3.1-0.8-4.61-0.55
			c-0.39,0.06-0.33,2.35-0.63,3.57c-0.33,1.34-0.84,2.64-1.27,3.95c-1.11-1.06-2.73-1.92-3.23-3.21c-1.39-3.6,0.97-8.41,4.25-9.45
			c4.57-1.45,9.44,0.66,10.72,4.65C1095.54,578.97,1093.51,582.67,1087.56,584.81z"/>
		<path class="st1" d="M1076.08,485.79c-0.9-1.81-1.35-2.95-1.99-3.97c-0.77-1.21-2.09-3.42-2.5-3.27
			c-1.59,0.57-2.91,1.88-4.33,2.92c0.87,1.14,1.74,2.28,2.61,3.43c0.74,0.99,1.47,1.99,2.46,3.33c-4.85,1.66-7.33-0.1-8.75-3.59
			c-1.57-3.85-0.82-7.18,2.88-9.53c3.3-2.09,6.68-2.62,9.43,0.62C1078.13,478.36,1080.18,481.4,1076.08,485.79z"/>
		<path class="st1" d="M840.1,491.14c2.7,3.55-6.67,6.95,0.43,9.53c7.66,2.79,1.27-6.65,6.46-6.97c3,1.97,2.55,5.11,1.21,8.26
			c-1.66,3.92-5.03,4.74-8.72,3.72c-3.58-0.99-6.54-3.18-6.01-7.4C833.92,494.55,835.32,491.14,840.1,491.14z"/>
		<path class="st1" d="M951.04,681.05c2.09,0.27,3.57,0.67,5.03,0.59c1.27-0.07,3.32-0.4,3.59-1.13c0.5-1.37,0.22-3.23-0.33-4.65
			c-0.15-0.38-2.45,0.11-3.77,0.13c-1.31,0.02-2.62-0.07-3.94-0.11c0.27-1.03,0.36-2.85,0.84-2.96c2.9-0.68,6.12-1.87,8.79-1.16
			c4.08,1.07,4.18,5.1,3.75,8.7c-0.4,3.4-2.42,5.39-5.89,5.61C955.75,686.27,952.47,686.16,951.04,681.05z"/>
		<path class="st1" d="M1086.22,511.52c-1.82,0.56-4.16,1.5-6.58,1.92c-0.95,0.17-2.1-0.82-3.16-1.28c0.6-1.1,0.94-2.72,1.86-3.21
			c2.17-1.14,4.62-1.73,7.12-2.6c-0.07-1.31-0.34-2.48-0.1-3.53c0.14-0.61,1.06-1.36,1.71-1.45c0.6-0.08,1.69,0.49,1.89,1.03
			c1.23,3.26,2.36,6.56,3.28,9.92c0.17,0.63-0.74,1.55-1.15,2.34C1089.74,513.78,1088.37,512.9,1086.22,511.52z"/>
		<path class="st1" d="M952.51,412.47c0.01,0.01,1.32,0.34,1.68,1.12c0.25,0.54-0.63,2.28-1.29,2.47c-2.93,0.83-2.81,2.7-2.31,5.03
			c0.31,1.44,0.56,3.05,0.2,4.41c-0.25,0.93-1.5,1.94-2.49,2.19c-0.54,0.14-1.88-1.1-2.12-1.93c-0.51-1.72-0.24-3.69-0.85-5.34
			c-0.47-1.27-1.8-2.22-2.77-3.29c-0.68-0.75-1.41-1.46-2.12-2.18c0.85-0.59,1.65-1.57,2.57-1.71
			C945.78,412.83,948.59,412.75,952.51,412.47z"/>
		<path class="st1" d="M893.84,436.33c0.76,1.28,2.19,3.18,3.05,5.32c0.4,0.99-0.31,2.43-0.52,3.67c-1.21-0.39-2.68-0.48-3.57-1.25
			c-1.08-0.94-1.46-2.69-2.54-3.64c-1.03-0.9-2.56-1.25-3.89-1.8c-0.95-0.39-1.92-0.72-2.89-1.08c0.5-0.92,0.78-2.13,1.54-2.71
			c1.7-1.32,3.56-2.5,5.5-3.41c1.45-0.68,3.14-0.85,4.72-1.25C894.87,431.86,894.49,433.53,893.84,436.33z"/>
		<path class="st1" d="M1071.09,621.94c0.92-0.86,1.64-1.83,2.6-2.32c0.52-0.27,1.68,0.05,2.15,0.51c0.43,0.42,0.67,1.62,0.37,2.08
			c-1.97,3.06-4.04,6.08-6.32,8.91c-0.23,0.28-2.14-0.81-3.27-1.26c3.03-4.96-1.97-5.53-4.18-7.62c-0.71-0.67-1.49-1.26-2.21-1.86
			C1062.14,616.51,1062.14,616.51,1071.09,621.94z"/>
		<path class="st1" d="M855.96,620.34c-0.62-1.15-1.41-2.09-1.62-3.15c-0.25-1.21,0-2.53,0.03-3.79c1.06,0.47,2.44,0.67,3.12,1.47
			c5.79,6.77,5.84,6.93-1.89,11.84c-1.92,1.22-4.18,5.47-6.77,1.58c-2.4-3.61,2.39-3.71,3.9-5.41
			C853.59,621.92,854.76,621.26,855.96,620.34z"/>
		<path class="st1" d="M849.45,600.47c1.43,2.71,3,5.37,4.21,8.18c0.34,0.78-0.03,2.57-0.65,2.95c-3.1,1.88-6.35,3.57-9.67,5.03
			c-0.64,0.28-2.31-0.49-2.67-1.2c-0.35-0.69,0.11-2.1,0.67-2.87c0.54-0.73,1.62-1.12,2.53-1.5c3.32-1.35,5.4-3.1,3.35-7.12
			c-0.4-0.79,0.57-2.27,0.91-3.44C848.57,600.5,849.01,600.48,849.45,600.47z"/>
		<path class="st1" d="M834.92,604.21c-0.67-1.9-1.08-3.09-1.65-4.72c4.44-1.83,8.65-3.58,13.26-5.48c0.74,1.36,1.4,2.57,2.32,4.26
			C844.13,600.28,839.82,602.12,834.92,604.21z"/>
		<path class="st1" d="M853.19,633.46c2.91-2.42,5.73-4.99,8.81-7.17c0.84-0.6,2.51-0.04,3.79-0.01c-0.19,1.24,0.06,2.92-0.66,3.65
			c-2.08,2.12-4.38,4.13-6.93,5.61c-1.22,0.71-3.19,0.12-4.82,0.12C853.33,634.93,853.26,634.19,853.19,633.46z"/>
		<path class="st1" d="M1091.66,517.74c0.58,0.54,2.04,1.29,2.07,2.1c0.04,0.93-1,2.5-1.89,2.77c-3.13,0.98-6.37,1.69-9.63,2.11
			c-0.85,0.11-2.41-1.07-2.67-1.95c-0.2-0.68,0.94-2.38,1.78-2.64C1084.45,519.17,1087.71,518.61,1091.66,517.74z"/>
		<path class="st1" d="M862.59,454.41c2.24-4.52,3.96-4.8,6.27-2.19c1.85,2.1,4.04,3.91,5.73,6.12c0.65,0.86,0.33,2.46,0.45,3.73
			c-1.27-0.09-2.88,0.27-3.74-0.37C868.25,459.46,865.47,456.87,862.59,454.41z"/>
		<path class="st1" d="M1011.42,673.06c-1.59-2.52-3.14-3.9-3.11-5.25c0.03-1.13,2.13-3.27,2.88-3.1c1.39,0.32,3.25,1.9,3.43,3.17
			C1014.79,669.09,1013.07,670.56,1011.42,673.06z"/>
		<path class="st1" d="M912.48,667.01c-2.47,1.76-3.89,3.54-5.05,3.38c-1.24-0.17-2.72-2.02-3.11-3.42
			c-0.19-0.67,1.85-2.74,2.95-2.79C908.58,664.12,909.95,665.54,912.48,667.01z"/>
		<path class="st2" d="M1039.56,461.52c-3.49,3.23-6.99,6.46-10.24,9.46c0.26-4.66,3.49-8.13,7.85-10.88
			C1037.97,460.57,1038.77,461.05,1039.56,461.52z"/>
		<path class="st1" d="M881.06,635.97c0.68,0.32,1.36,0.65,2.04,0.97C882.42,636.62,881.74,636.29,881.06,635.97z"/>
		<path class="st1" d="M883.04,636.89c0.35,0.37,0.7,0.73,1.05,1.1C883.74,637.62,883.39,637.26,883.04,636.89z"/>
		<path class="st2" d="M943.98,477.05c0.3,1.31,0.37,2.73,0.95,3.9c4.79,9.76-0.54,18.79-11.43,19.17
			c-1.98,0.07-3.99-0.04-5.96-0.29c-10.97-1.41-15.05-8.81-10.48-18.88c0.39-0.86,0.58-1.81,0.87-2.72l-0.01,0.12
			c0.98-1.04,2.01-2.04,2.92-3.13c5.57-6.68,12.67-6.98,19.15-0.86c1.17,1.11,2.69,1.86,4.05,2.77
			C944.04,477.12,943.98,477.05,943.98,477.05z"/>
		<path class="st2" d="M929.12,461.31c0,0.83,0.24,1.77-0.05,2.48c-0.6,1.42-1.49,2.73-2.25,4.08c-1.15-0.83-3.07-1.47-3.33-2.52
			c-1.18-4.89-2-9.88-2.68-14.87c-0.11-0.81,1.13-2.53,1.78-2.55c1.09-0.03,2.83,0.71,3.21,1.59c1.62,3.73,2.85,7.64,4.22,11.48
			C929.72,461.11,929.42,461.21,929.12,461.31z"/>
		<path class="st2" d="M878.26,507.74c-0.14,1.32-0.08,2.71-0.47,3.95c-0.88,2.82-2.54,3.31-4.74,1.17
			c-2.94-2.87-4.93-12.72-3.34-16.55c1.45-3.51,3.73-2.84,5-0.35c1.84,3.62,2.87,7.64,4.25,11.5
			C878.72,507.54,878.49,507.64,878.26,507.74z"/>
		<path class="st2" d="M933.42,462.27c1.16-3.61,2.13-7.29,3.57-10.78c0.46-1.12,2.14-1.75,3.26-2.6c0.79,1.14,2.35,2.38,2.23,3.42
			c-0.52,4.55-1.32,9.1-2.5,13.52c-0.33,1.25-2.27,2.08-3.47,3.1c-0.82-1.49-1.72-2.96-2.43-4.5c-0.25-0.55-0.04-1.31-0.04-1.98
			C933.84,462.39,933.63,462.33,933.42,462.27z"/>
		<path class="st2" d="M882.18,508.57c1.37-3.85,2.59-7.77,4.21-11.52c0.39-0.9,2.05-1.65,3.14-1.68c0.55-0.01,1.73,1.81,1.63,2.69
			c-0.53,4.72-1.13,9.46-2.27,14.05c-0.31,1.26-2.55,2.03-3.91,3.03c-0.66-1.43-1.39-2.83-1.93-4.3c-0.22-0.59-0.04-1.32-0.04-1.99
			C882.73,508.76,882.45,508.66,882.18,508.57z"/>
		<path class="st2" d="M902.56,510.63c-1.71,3.63-3.24,7.23-5.14,10.62c-0.51,0.91-2.14,1.19-3.26,1.76
			c-0.55-1.09-1.78-2.37-1.54-3.24c1.08-3.89,2.43-7.72,4.04-11.42c0.38-0.86,2.48-1.83,3.2-1.49
			C900.93,507.35,901.47,508.98,902.56,510.63z"/>
		<path class="st2" d="M944.04,477.12c-1.12-8.79,1.05-14.17,6.87-17.02c4.2,5.41,0.07,15.52-6.93,16.95
			C943.98,477.05,944.04,477.12,944.04,477.12z"/>
		<path class="st2" d="M867.05,524.09c-5.53-0.55-11.09-9.88-8.68-15.02c0.34-0.72,3.76-1.02,3.93-0.65
			c1.78,3.77,3.3,7.67,4.63,11.62c0.42,1.24,0.05,2.75,0.03,4.14C866.97,524.2,867.05,524.09,867.05,524.09z"/>
		<path class="st2" d="M917.93,478.22c-5.66-2.47-9.16-7.82-8.7-13.66c0.09-1.2,0.9-2.36,1.37-3.53c1.26,0.59,2.94,0.85,3.72,1.83
			c3.12,3.93,4.56,8.42,3.47,13.51c-0.13,0.61,0.08,1.3,0.14,1.96C917.92,478.34,917.93,478.22,917.93,478.22z"/>
		<path class="st1" d="M934.57,588.6c1.04-4.69,2.71-7.67,6.62-7.48c1.26,0.06,3.44,2.7,3.41,4.12c-0.08,3.58-2.26,6.45-6.14,6.39
			C937.03,591.61,935.63,589.47,934.57,588.6z"/>
		<path class="st0" d="M861.55,473.53c-0.55-0.25-1.09-0.5-1.64-0.75c0.04-0.17,0.09-0.34,0.13-0.51c0.72,0.16,1.44,0.32,2.16,0.48
			C861.98,473.01,861.77,473.27,861.55,473.53z"/>
		<path class="st0" d="M858.36,465.58c0.21,0.33,0.42,0.65,0.63,0.98c-0.38-0.13-0.76-0.25-1.14-0.38
			C858.02,465.98,858.19,465.78,858.36,465.58z"/>
		<path class="st0" d="M871.16,641.18c-0.11,0.11-0.22,0.23-0.35,0.3c-0.03,0.02-0.16-0.15-0.24-0.24c0.11-0.11,0.23-0.22,0.34-0.33
			C870.9,640.92,871.16,641.18,871.16,641.18z"/>
		<path class="st0" d="M870.95,646.94c0.1-0.12,0.21-0.23,0.31-0.35c0.08,0.08,0.16,0.16,0.24,0.24c-0.12,0.1-0.23,0.2-0.35,0.3
			C871.15,647.14,870.95,646.94,870.95,646.94z"/>
		<path class="st0" d="M864.97,640.96c0.09-0.12,0.19-0.24,0.28-0.35c-0.05,0.16-0.11,0.31-0.16,0.47
			C865.09,641.08,864.97,640.96,864.97,640.96z"/>
		<path class="st0" d="M880.24,451.8c-1.43-1.66-2.85-3.31-4.28-4.97c0.23-0.49,0.46-0.99,0.68-1.48c1.36,0.39,3.24,0.36,3.96,1.27
			c0.91,1.15,0.89,3.04,1.27,4.61C881.34,451.43,880.79,451.62,880.24,451.8z"/>
		<path class="st0" d="M1002.65,426.02c-1.29,1.18-2.58,2.37-3.87,3.55c-0.89-0.98-2.71-2.39-2.49-2.87
			c0.76-1.69,1.99-3.47,3.53-4.39c0.8-0.48,2.63,0.77,4,1.25C1003.43,424.37,1003.04,425.2,1002.65,426.02z"/>
		<path class="st0" d="M918.34,429.04c-1.85,1.39-3.53,2.93-3.74,2.75c-1.34-1.14-2.64-2.55-3.32-4.14
			c-0.21-0.48,2.12-2.74,2.34-2.61C915.1,425.93,916.33,427.24,918.34,429.04z"/>
		<path class="st0" d="M1089.23,538.29c-1.82-1.58-2.91-2.52-4.01-3.47c1.23-1,2.38-2.61,3.73-2.8c1.14-0.16,2.5,1.34,3.77,2.11
			C1091.71,535.33,1090.71,536.52,1089.23,538.29z"/>
		<path class="st0" d="M1044.69,455.17c1.95-1.23,3.89-2.47,5.84-3.7c0.02,1.16,0.53,2.83-0.03,3.36c-1.24,1.16-3.03,1.74-4.59,2.56
			C1045.5,456.64,1045.09,455.9,1044.69,455.17z"/>
		<path class="st0" d="M1060.32,636.65c-0.12,0.08-0.23,0.17-0.35,0.25c-0.09-0.18-0.18-0.37-0.27-0.55
			c0.15-0.02,0.31-0.1,0.43-0.05C1060.23,636.34,1060.26,636.52,1060.32,636.65z"/>
		<path class="st0" d="M982.24,417.57c0.77,1.07,2.34,2.34,2.13,3.16c-0.42,1.67-1.81,3.1-2.79,4.63c-0.9-0.94-2.53-1.88-2.53-2.82
			c0-1.64,1.01-3.28,1.6-4.92C981.18,417.61,981.71,417.59,982.24,417.57z"/>
		<path class="st0" d="M835.1,543.45c-0.34,0.48-0.61,0.85-0.87,1.21c-0.36-0.39-0.83-0.74-1.01-1.21
			c-0.07-0.18,0.52-0.82,0.86-0.87C834.36,542.55,834.71,543.1,835.1,543.45z"/>
		<path class="st0" d="M827.94,541.95c0,0.72,0,1.45,0,2.17c-0.29-0.07-0.58-0.14-0.87-0.21c0.32-0.63,0.64-1.27,0.96-1.9
			C828.03,542.01,827.94,541.95,827.94,541.95z"/>
		<path class="st0" d="M837.04,517.04c0.54-1.28,1.08-2.56,1.63-3.84c0.51,0.43,1.03,0.86,1.54,1.29c-1.08,0.83-2.15,1.66-3.23,2.48
			C836.98,516.98,837.04,517.04,837.04,517.04z"/>
		<path class="st0" d="M836.98,516.98c-0.22,0.44-0.44,0.88-0.66,1.33c-0.18-0.18-0.37-0.36-0.55-0.54
			c0.42-0.24,0.84-0.48,1.27-0.73C837.04,517.04,836.98,516.98,836.98,516.98z"/>
		<path class="st0" d="M1039.01,441.97c-0.53,0.3-0.91,0.7-1.17,0.62c-0.38-0.11-0.66-0.55-0.98-0.85c0.3-0.24,0.62-0.7,0.89-0.67
			C1038.12,441.13,1038.44,441.54,1039.01,441.97z"/>
		<path class="st0" d="M961.92,423.83c0.65-2.95,1.16-5.27,1.66-7.59c1,0.67,2.62,1.17,2.87,2.05
			C967.19,420.91,966.64,423.19,961.92,423.83z"/>
	</g>
</g>
</svg>
